<svg version="1.1" id="Layer_1" xmlns="http://www.w3.org/2000/svg" xmlns:xlink="http://www.w3.org/1999/xlink" x="0px" y="0px"
	 width="100%" viewBox="0 0 1000 1000" enable-background="new 0 0 1000 1000" xml:space="preserve">
<path fill="#000000" opacity="1.000000" stroke="none" 
	d="
M554.000000,1001.000000 
	C369.333344,1001.000000 185.166672,1001.000000 1.000000,1001.000000 
	C1.000000,667.666687 1.000000,334.333344 1.000000,1.000000 
	C334.333344,1.000000 667.666687,1.000000 1001.000000,1.000000 
	C1001.000000,334.333344 1001.000000,667.666687 1001.000000,1001.000000 
	C852.166687,1001.000000 703.333313,1001.000000 554.000000,1001.000000 
M688.032898,102.542786 
	C675.933044,92.064903 662.035278,85.166809 645.943237,85.122215 
	C554.788208,84.869576 463.632141,84.999954 372.476410,85.000496 
	C371.143280,85.000504 369.773041,84.805496 368.482574,85.042160 
	C348.832672,88.645729 332.048676,97.269028 319.964325,113.611511 
	C310.534454,126.364151 304.741882,140.455261 304.957581,156.688370 
	C305.156860,171.683914 304.883240,186.685730 305.079285,201.681366 
	C305.130493,205.598328 303.714050,208.465149 301.277344,211.288361 
	C296.158051,217.219696 291.151428,223.253311 286.247406,229.364395 
	C274.541718,243.951294 263.034180,258.698364 251.233383,273.207367 
	C241.520035,285.149841 232.397064,297.396393 225.270187,311.154724 
	C213.634018,333.618225 206.299667,357.511078 206.234818,382.582642 
	C205.788254,555.227417 205.998291,727.873962 206.004471,900.519897 
	C206.004822,910.349121 212.728836,916.999817 222.590332,916.999817 
	C407.901428,917.000061 593.212646,916.921997 778.523254,917.233093 
	C787.665161,917.248474 796.185303,909.014954 796.171143,899.405884 
	C795.931885,737.259033 796.022705,575.111694 795.956787,412.964508 
	C795.951538,400.047424 795.304810,387.131317 795.007690,374.213531 
	C794.673035,359.660950 791.311218,345.637268 787.287231,331.787964 
	C781.639526,312.350128 772.541687,294.574738 761.060730,277.880035 
	C746.355286,256.496399 732.178650,234.749695 717.663818,213.233871 
	C715.113464,209.453476 713.790283,205.681335 713.895325,200.990173 
	C714.193848,187.665146 713.756653,174.323181 714.078613,160.999237 
	C714.326416,150.744659 712.914856,140.870224 708.956543,131.452179 
	C704.336548,120.459885 698.378601,110.336182 688.032898,102.542786 
z"/>
<path fill="#FFFFFF" opacity="1.000000" stroke="none" 
	d="
M688.328857,102.755005 
	C698.378601,110.336182 704.336548,120.459885 708.956543,131.452179 
	C712.914856,140.870224 714.326416,150.744659 714.078613,160.999237 
	C713.756653,174.323181 714.193848,187.665146 713.895325,200.990173 
	C713.790283,205.681335 715.113464,209.453476 717.663818,213.233871 
	C732.178650,234.749695 746.355286,256.496399 761.060730,277.880035 
	C772.541687,294.574738 781.639526,312.350128 787.287231,331.787964 
	C791.311218,345.637268 794.673035,359.660950 795.007690,374.213531 
	C795.304810,387.131317 795.951538,400.047424 795.956787,412.964508 
	C796.022705,575.111694 795.931885,737.259033 796.171143,899.405884 
	C796.185303,909.014954 787.665161,917.248474 778.523254,917.233093 
	C593.212646,916.921997 407.901428,917.000061 222.590332,916.999817 
	C212.728836,916.999817 206.004822,910.349121 206.004471,900.519897 
	C205.998291,727.873962 205.788254,555.227417 206.234818,382.582642 
	C206.299667,357.511078 213.634018,333.618225 225.270187,311.154724 
	C232.397064,297.396393 241.520035,285.149841 251.233383,273.207367 
	C263.034180,258.698364 274.541718,243.951294 286.247406,229.364395 
	C291.151428,223.253311 296.158051,217.219696 301.277344,211.288361 
	C303.714050,208.465149 305.130493,205.598328 305.079285,201.681366 
	C304.883240,186.685730 305.156860,171.683914 304.957581,156.688370 
	C304.741882,140.455261 310.534454,126.364151 319.964325,113.611511 
	C332.048676,97.269028 348.832672,88.645729 368.482574,85.042160 
	C369.773041,84.805496 371.143280,85.000504 372.476410,85.000496 
	C463.632141,84.999954 554.788208,84.869576 645.943237,85.122215 
	C662.035278,85.166809 675.933044,92.064903 688.328857,102.755005 
M239.000000,503.500000 
	C239.000000,564.927002 239.000000,626.353943 239.000000,687.714355 
	C359.641449,687.714355 479.709900,687.714355 599.713623,687.714355 
	C599.713623,600.358948 599.713623,513.289490 599.713623,426.285645 
	C479.358612,426.285645 359.290161,426.285645 239.000000,426.285645 
	C239.000000,451.880432 239.000000,477.190216 239.000000,503.500000 
M354.500000,721.000000 
	C316.072174,721.000000 277.644348,721.000000 239.288757,721.000000 
	C239.288757,775.978210 239.288757,830.381714 239.288757,884.712952 
	C359.645538,884.712952 479.713348,884.712952 599.711304,884.712952 
	C599.711304,830.021912 599.711304,775.618408 599.711304,721.000000 
	C518.115173,721.000000 436.807587,721.000000 354.500000,721.000000 
M610.964539,323.289185 
	C615.475159,313.190460 619.041077,302.522247 624.708557,293.120972 
	C634.183105,277.404572 645.022339,262.512390 655.240845,247.242294 
	C659.186279,241.346313 663.005737,235.365936 667.159241,229.000000 
	C557.134033,229.000000 448.003082,229.037460 338.872406,228.902420 
	C332.647156,228.894730 327.891022,229.571594 323.843597,235.352890 
	C316.771515,245.454559 308.636230,254.814499 300.898926,264.447113 
	C293.655640,273.464691 286.500488,282.559326 279.035309,291.390778 
	C269.607727,302.543793 260.630981,313.995300 254.021576,327.083160 
	C246.944809,341.096497 242.419128,355.993866 240.117447,371.477844 
	C239.069870,378.525024 239.161148,385.741516 238.750778,392.630737 
	C324.993317,392.630737 410.263397,392.630737 496.628784,392.630737 
	C485.067230,388.740204 483.052612,371.925537 490.717896,363.916595 
	C493.607422,360.897522 497.395325,358.755188 500.606812,356.017395 
	C501.627716,355.147095 503.002716,353.327515 502.701935,352.478760 
	C498.951172,341.895325 496.873993,331.049225 495.848511,319.856384 
	C494.707123,307.398529 493.525208,294.982056 498.101379,283.028259 
	C501.722870,273.568329 510.115967,268.898804 517.860413,273.955353 
	C524.569519,278.335846 525.583069,285.529694 525.766968,292.302399 
	C525.972595,299.874756 523.488281,307.191284 516.557251,311.617371 
	C515.393799,312.360291 512.617737,311.093079 510.932343,310.142151 
	C510.509277,309.903473 510.890656,306.721405 511.809387,305.864197 
	C518.620667,299.509033 518.265564,291.988403 515.549622,284.166473 
	C514.986023,282.543182 513.142029,280.376648 511.773102,280.290649 
	C510.321960,280.199554 507.926483,281.982300 507.354950,283.483948 
	C505.548279,288.230896 503.544983,293.170715 503.205750,298.144226 
	C502.726501,305.170654 503.190765,312.356812 504.118164,319.359955 
	C505.302124,328.300568 507.340790,337.128448 509.029266,346.001465 
	C509.765472,349.870331 511.606323,350.887115 515.379150,349.025085 
	C519.387390,347.046844 523.599121,345.304382 527.912170,344.205627 
	C529.672791,343.757080 533.210815,344.760498 533.705017,345.996826 
	C534.787598,348.704987 533.811401,351.254517 530.039429,352.129547 
	C526.492676,352.952393 523.231873,354.943146 519.713928,355.969818 
	C514.221985,357.572571 514.505615,360.982941 515.086121,365.773071 
	C515.705383,370.882416 515.166199,376.373352 513.927490,381.400726 
	C512.613892,386.731995 508.644318,390.566345 503.043549,392.731171 
	C535.583435,392.731171 567.665039,392.731171 599.160828,392.731171 
	C600.124084,380.629974 600.304932,368.721741 602.217041,357.098328 
	C604.058472,345.904510 607.689270,335.005096 610.964539,323.289185 
M681.000000,163.516006 
	C680.938599,159.526031 681.610901,155.358597 680.695740,151.575119 
	C675.068848,128.310715 659.011536,117.162178 636.563843,117.092171 
	C559.573669,116.852036 482.582153,116.962418 405.591248,117.044350 
	C395.177490,117.055428 384.762024,117.606476 374.351746,118.018044 
	C365.390900,118.372307 357.892029,122.362701 351.406769,128.183945 
	C343.253479,135.502426 338.011108,144.425186 337.985962,155.768143 
	C337.955627,169.439865 337.978760,183.111710 337.978760,196.718048 
	C451.979431,196.718048 566.375183,196.718048 681.000000,196.718048 
	C681.000000,185.795410 681.000000,175.153275 681.000000,163.516006 
M735.532898,299.027496 
	C723.164246,280.615814 710.795593,262.204132 698.095947,243.299789 
	C696.810791,244.843338 695.800903,245.861816 695.015076,247.030869 
	C688.634338,256.523071 682.277954,266.031738 675.948608,275.558289 
	C667.393250,288.435211 658.228271,300.962494 650.506653,314.322815 
	C642.439392,328.281281 637.700745,343.709076 635.028320,359.663513 
	C634.079529,365.327637 633.461731,371.047180 632.696777,376.712006 
	C676.383057,376.712006 719.105347,376.712006 762.331421,376.712006 
	C760.115051,348.501770 751.382507,322.944122 735.532898,299.027496 
M633.000244,782.322388 
	C632.547852,786.285278 635.551392,784.953552 637.334106,784.956055 
	C678.331604,785.012939 719.329163,785.000488 760.326721,784.994812 
	C761.111572,784.994751 761.896484,784.921448 762.769409,784.877930 
	C762.769409,761.806519 762.769409,739.068970 762.769409,716.232300 
	C719.468445,716.232300 676.398438,716.232300 633.000000,716.232300 
	C633.000000,738.091370 633.000000,759.719849 633.000244,782.322388 
M712.500000,614.000000 
	C686.072876,614.000000 659.645691,614.000000 633.286743,614.000000 
	C633.286743,637.309021 633.286743,660.045959 633.286743,682.714600 
	C676.642395,682.714600 719.710571,682.714600 762.713257,682.714600 
	C762.713257,659.691040 762.713257,636.954102 762.713257,614.000000 
	C746.118286,614.000000 729.809143,614.000000 712.500000,614.000000 
M668.500000,479.000000 
	C699.926453,479.000000 731.352966,479.000000 762.713867,479.000000 
	C762.713867,455.692352 762.713867,432.955383 762.713867,410.284729 
	C719.358948,410.284729 676.290771,410.284729 633.286072,410.284729 
	C633.286072,433.307587 633.286072,456.044586 633.286072,479.000000 
	C644.880554,479.000000 656.190247,479.000000 668.500000,479.000000 
M755.439453,581.000000 
	C757.876953,581.000000 760.314514,581.000000 762.730347,581.000000 
	C762.730347,557.726807 762.730347,534.989380 762.730347,512.270264 
	C719.390686,512.270264 676.321289,512.270264 633.272583,512.270264 
	C633.272583,535.279053 633.272583,558.016479 633.272583,581.000000 
	C673.848450,581.000000 714.152161,581.000000 755.439453,581.000000 
M744.499512,885.000000 
	C750.597351,885.000000 756.695251,885.000000 762.710632,885.000000 
	C762.710632,862.352478 762.710632,840.282043 762.710632,818.287964 
	C719.352417,818.287964 676.284241,818.287964 633.289368,818.287964 
	C633.289368,840.647522 633.289368,862.717957 633.289368,885.000000 
	C670.218750,885.000000 706.859192,885.000000 744.499512,885.000000 
M501.058350,365.426727 
	C498.802612,368.720581 495.627136,371.748199 494.572937,375.389893 
	C493.678284,378.480316 494.046448,383.138641 498.300140,384.559723 
	C502.030090,385.805847 504.028595,382.812408 505.637726,379.870392 
	C508.610260,374.435699 508.611572,368.858307 506.469727,362.944855 
	C504.880859,363.642212 503.304596,364.334045 501.058350,365.426727 
z"/>
<path fill="#000000" opacity="1.000000" stroke="none" 
	d="
M239.000000,503.000000 
	C239.000000,477.190216 239.000000,451.880432 239.000000,426.285645 
	C359.290161,426.285645 479.358612,426.285645 599.713623,426.285645 
	C599.713623,513.289490 599.713623,600.358948 599.713623,687.714355 
	C479.709900,687.714355 359.641449,687.714355 239.000000,687.714355 
	C239.000000,626.353943 239.000000,564.927002 239.000000,503.000000 
M495.999664,627.380615 
	C494.785797,626.253784 493.544861,624.159851 492.363495,624.192993 
	C489.535370,624.272339 486.692688,625.212708 483.932129,626.055359 
	C476.493225,628.325867 472.026093,627.132202 467.694977,621.103088 
	C466.127563,618.921143 465.156616,616.310852 463.952423,613.971680 
	C466.043396,611.474121 468.129364,609.168152 470.009827,606.705322 
	C479.604034,594.139587 482.689056,579.878418 481.024353,564.352173 
	C480.413361,558.653503 476.927795,553.364014 472.404144,552.173706 
	C467.665039,550.926575 463.676910,553.301392 461.216492,556.612732 
	C450.779846,570.659119 449.373016,586.702759 451.802216,603.486572 
	C452.314026,607.023071 454.308990,611.055237 449.672913,613.811096 
	C445.525269,616.276611 441.716675,619.320679 437.530762,621.710693 
	C435.144714,623.073120 432.302734,623.637146 429.459198,624.633057 
	C428.111237,619.716919 427.316681,615.593262 425.786407,611.763550 
	C425.039429,609.894226 423.056213,607.536255 421.382812,607.318481 
	C419.942413,607.130981 417.578186,609.343689 416.606567,611.054138 
	C412.038513,619.095825 404.857025,623.209412 396.201599,624.917297 
	C390.715759,625.999756 387.830200,622.320557 389.459808,617.012878 
	C393.541870,603.717468 405.503937,597.369324 418.767548,601.189758 
	C420.151031,601.588318 422.692261,600.776428 423.448669,599.671814 
	C424.076202,598.755371 423.285400,595.488586 422.397308,595.146362 
	C417.971741,593.441162 413.103455,590.853149 408.776764,591.436646 
	C403.349060,592.168518 397.857422,595.021729 393.179382,598.138977 
	C385.203339,603.453918 380.741425,611.224121 381.017059,621.158020 
	C381.161438,626.361023 384.442139,630.484009 389.652893,632.133850 
	C399.430450,635.229553 407.597961,630.813721 414.746246,625.353699 
	C419.514282,621.711792 420.428528,623.476807 422.225189,627.506409 
	C424.584259,632.797363 428.121948,634.404541 433.671997,631.912231 
	C440.334961,628.920166 446.783295,625.309143 452.918182,621.338257 
	C456.278198,619.163391 457.295532,619.869202 459.093597,622.993774 
	C463.564362,630.762817 469.506775,636.660278 479.570465,634.959717 
	C484.146698,634.186462 488.711639,633.183289 493.144958,631.834900 
	C494.351257,631.468018 495.060944,629.468018 495.999664,627.380615 
M526.367432,637.966797 
	C530.762268,636.013000 535.010498,633.521851 539.597107,632.271301 
	C543.437500,631.224182 544.932068,628.972412 543.666565,626.007568 
	C543.140137,624.774170 539.129333,624.175659 537.013611,624.656250 
	C533.002502,625.567444 529.110413,627.243713 525.366882,629.019714 
	C522.060913,630.588135 520.207764,630.237610 519.102234,626.476440 
	C514.267090,610.026123 511.945526,593.221985 513.227295,576.154785 
	C513.590515,571.319031 516.335876,566.506897 518.647766,562.023743 
	C520.373779,558.676941 523.150574,559.547241 524.729553,562.443787 
	C528.242493,568.888062 528.885132,579.422241 522.468079,585.080383 
	C520.824829,586.529358 518.088928,588.524902 521.279724,590.481812 
	C522.919373,591.487427 526.418152,591.408203 527.970642,590.287231 
	C536.672363,584.004211 537.839844,569.556213 532.706421,559.295898 
	C528.071289,550.031494 516.677246,549.366089 511.009644,558.011902 
	C507.028046,564.085571 504.831635,570.759583 505.027985,578.058899 
	C505.236420,585.807861 505.132385,593.620728 506.135956,601.278442 
	C507.348450,610.530579 508.863159,619.874634 511.647369,628.739075 
	C513.263367,633.884094 512.113647,635.950134 507.936859,638.041626 
	C499.813049,642.109558 493.925079,650.850281 496.953674,662.437805 
	C499.423553,671.887512 509.000641,676.032959 516.947449,670.517090 
	C524.795410,665.069885 527.226990,655.747314 525.596375,645.933105 
	C525.177490,643.411682 522.685852,640.648865 526.367432,637.966797 
M425.940338,532.409363 
	C429.109100,534.622192 432.105896,537.184143 435.533203,538.872009 
	C436.861603,539.526184 439.163849,538.202942 441.022461,537.780518 
	C440.528259,536.141052 440.529114,533.970703 439.447052,532.961670 
	C436.200684,529.934204 432.531525,527.360168 429.042206,524.620850 
	C431.178406,522.058716 433.283966,519.945007 434.898254,517.506165 
	C437.718658,513.244995 440.489655,508.905518 442.698029,504.318085 
	C443.227844,503.217438 441.873199,500.462250 440.604645,499.527985 
	C439.862671,498.981537 436.960297,500.067932 436.092499,501.220123 
	C432.508087,505.978851 429.258270,510.997345 426.030243,516.013550 
	C424.246338,518.785645 422.754700,518.885986 420.988190,516.074524 
	C419.873535,514.300537 418.819031,512.403564 417.347717,510.958801 
	C415.127594,508.778778 415.897552,507.216064 417.869537,505.655212 
	C429.377258,496.546967 427.223724,475.559631 421.948822,465.848480 
	C419.425201,461.202545 414.013062,459.621002 409.376434,462.291168 
	C401.249786,466.971161 399.197998,475.167633 398.059052,483.576599 
	C396.930328,491.910370 399.544678,499.510437 403.983734,506.672607 
	C401.676666,508.911438 399.199585,510.748993 397.446472,513.121460 
	C391.945801,520.565491 392.458069,528.132935 401.043121,530.722290 
	C406.201996,532.278198 412.206696,530.952942 417.827179,531.090088 
	C420.344910,531.151489 422.852661,531.623779 425.940338,532.409363 
M332.000000,574.475891 
	C332.826935,583.851807 333.653839,593.227722 334.482422,602.622498 
	C327.783051,603.816772 323.171204,606.943665 323.326385,612.946899 
	C323.492157,619.359741 325.797760,625.794556 327.783325,632.024109 
	C328.231750,633.431030 331.125336,634.581360 333.052612,634.906860 
	C343.462036,636.665161 345.315521,628.588196 344.924377,621.042664 
	C344.758209,617.836914 344.085083,614.657471 343.665009,611.629395 
	C349.687958,610.364929 355.017151,609.246155 360.449310,608.105713 
	C360.867249,608.845276 361.621826,609.631470 361.759491,610.513977 
	C362.585022,615.806885 363.473267,621.104797 363.919037,626.436279 
	C364.164703,629.374451 364.512085,631.824158 368.028015,631.967041 
	C372.098816,632.132446 372.229889,629.356140 372.024353,626.322021 
	C371.889526,624.331360 372.253937,622.282410 371.941315,620.332214 
	C369.353699,604.190369 366.617645,588.072327 364.029785,571.930542 
	C363.409821,568.063538 360.340942,566.957703 358.015442,568.344360 
	C356.519501,569.236389 356.179443,573.147522 356.391693,575.613403 
	C356.947601,582.071838 358.363831,588.460876 358.808960,594.920837 
	C358.921112,596.548523 357.042786,599.185547 355.437531,599.883911 
	C351.702057,601.509094 347.575806,602.236206 342.980072,603.499817 
	C342.276733,596.566589 341.562439,590.279541 341.023346,583.977539 
	C340.575104,578.737427 340.646027,573.429199 339.813080,568.259766 
	C339.555023,566.658020 337.250000,564.510498 335.596039,564.215149 
	C333.128235,563.774597 331.580261,565.606812 331.961456,568.521851 
	C332.175659,570.160095 332.000031,571.849243 332.000000,574.475891 
z"/>
<path fill="#000000" opacity="1.000000" stroke="none" 
	d="
M355.000000,721.000000 
	C436.807587,721.000000 518.115173,721.000000 599.711304,721.000000 
	C599.711304,775.618408 599.711304,830.021912 599.711304,884.712952 
	C479.713348,884.712952 359.645538,884.712952 239.288757,884.712952 
	C239.288757,830.381714 239.288757,775.978210 239.288757,721.000000 
	C277.644348,721.000000 316.072174,721.000000 355.000000,721.000000 
M570.847168,812.316162 
	C560.252502,807.421143 552.091431,811.146362 545.036011,819.391968 
	C542.443909,822.421448 539.610657,825.313293 536.544189,827.853577 
	C530.415771,832.930237 523.733337,836.948730 515.130859,837.089294 
	C514.709412,834.292664 514.578491,831.850403 513.941223,829.548279 
	C512.874451,825.694458 512.039673,821.596680 507.490509,819.986877 
	C502.600311,818.256470 497.732544,820.219971 493.940094,825.201477 
	C491.223450,828.769897 488.158264,832.072998 484.638672,836.211609 
	C483.786835,834.071472 483.277740,833.112488 483.019440,832.090149 
	C481.647400,826.659363 480.552704,821.148376 478.946198,815.789795 
	C477.383667,810.577881 472.573944,808.728088 467.736877,811.052124 
	C461.925781,813.843933 460.183777,819.506958 457.988251,824.847168 
	C456.149628,829.319153 454.333771,833.800537 452.507874,838.277771 
	C451.939514,838.239380 451.371155,838.200989 450.802826,838.162598 
	C450.201874,835.127258 449.468445,832.110901 449.029480,829.052246 
	C448.270477,823.763550 448.025513,818.381592 446.968628,813.159485 
	C445.078735,803.821899 437.380493,803.329529 430.606323,806.229370 
	C422.897217,809.529358 420.779358,816.943298 419.036316,824.252625 
	C416.763000,833.785706 402.469818,842.102173 393.683746,837.701660 
	C389.383453,835.547791 386.650970,830.263733 384.343933,827.671692 
	C389.229614,819.608093 394.198639,813.257629 397.159210,806.078918 
	C401.405914,795.781616 402.934204,784.818665 399.010956,773.802124 
	C396.478241,766.690247 388.745758,764.697937 383.515503,770.069214 
	C370.783661,783.144287 371.330566,799.515991 372.436462,815.993652 
	C372.614349,818.644165 373.613800,822.827759 372.373962,823.720703 
	C365.633057,828.575623 358.480530,832.952209 351.097076,836.773560 
	C348.345642,838.197571 344.862976,837.336121 344.351593,832.872009 
	C344.058044,830.309509 343.587524,827.748840 342.960571,825.246460 
	C340.936676,817.167969 334.306671,814.567383 327.363464,819.203918 
	C325.071747,820.734192 323.136902,822.789124 320.968689,824.516052 
	C316.496735,828.077820 311.836090,831.419861 307.553375,835.193237 
	C306.028778,836.536438 305.374115,838.867065 304.322357,840.746948 
	C306.502167,841.386902 309.430450,843.246094 310.728302,842.449341 
	C315.567474,839.478699 319.937805,835.717224 324.353485,832.093384 
	C327.318085,829.660461 330.062653,826.959351 334.083221,823.309204 
	C335.306122,828.397217 336.331146,831.889954 336.958862,835.452759 
	C337.923798,840.929382 341.366760,845.943298 347.083649,844.994690 
	C350.103607,844.493530 353.441071,844.591553 356.066803,843.280640 
	C363.348755,839.645203 370.332642,835.412720 377.838959,831.188477 
	C378.635345,832.602295 379.553864,834.447327 380.665527,836.167603 
	C384.459229,842.038208 389.028015,846.922180 396.826202,845.934509 
	C401.909607,845.290588 406.985168,844.285889 411.935852,842.962524 
	C419.640106,840.903015 424.129517,835.758484 426.120422,827.927917 
	C427.245117,823.504211 428.917236,818.917236 431.527893,815.246765 
	C435.176178,810.117554 438.201599,810.923279 439.969513,816.931396 
	C440.644714,819.225891 440.602966,821.722534 441.014557,824.105225 
	C441.972198,829.648499 442.549927,835.313293 444.132385,840.677917 
	C445.890167,846.636841 454.230164,848.424316 457.805328,843.416687 
	C460.989685,838.956360 462.619110,833.396851 465.021942,828.364014 
	C466.756775,824.730347 468.634491,821.164917 470.448456,817.569092 
	C470.965515,817.702026 471.482605,817.834961 471.999664,817.967896 
	C473.000122,822.965088 474.152405,827.937744 474.967010,832.965027 
	C476.340271,841.440186 482.416138,845.503479 489.214905,841.758728 
	C491.936249,840.259766 493.808685,837.191162 496.010315,834.784668 
	C498.547150,832.011719 501.020782,829.180969 504.514587,825.261658 
	C505.593750,830.180237 506.152435,833.453003 507.043579,836.632568 
	C508.749207,842.718018 511.322998,846.192871 518.047607,844.896057 
	C522.716919,843.995605 527.887146,843.098938 531.617920,840.473267 
	C539.074219,835.225647 545.902100,829.014038 552.606384,822.788025 
	C560.040161,815.884460 568.430359,816.601746 573.606873,825.089294 
	C575.977600,828.976196 575.133545,831.327148 571.289490,834.381226 
	C566.341858,838.312195 560.391541,837.914429 554.772095,839.118774 
	C553.353760,839.422668 551.547363,840.984558 551.148743,842.331970 
	C550.345581,845.047119 552.084106,846.169067 554.820251,846.027283 
	C557.313354,845.898132 559.874451,846.338135 562.307434,845.935059 
	C569.068054,844.815186 576.054138,843.125732 579.851929,837.005554 
	C585.127625,828.503906 582.067566,819.622620 570.847168,812.316162 
M267.000092,817.361755 
	C266.342316,812.541077 265.799957,807.701172 264.997925,802.904602 
	C263.969147,796.751892 266.580170,791.048279 272.392700,789.346741 
	C282.058014,786.517395 291.977997,785.496521 302.017151,787.493958 
	C303.125946,787.714539 304.350739,788.182922 305.349670,787.908997 
	C306.528534,787.585693 308.101654,786.780090 308.434509,785.814880 
	C308.789368,784.785706 308.234070,783.033325 307.456085,782.131592 
	C306.577393,781.113098 305.079468,780.333374 303.728394,780.064087 
	C291.806671,777.687927 280.087616,778.658691 268.787262,783.076660 
	C261.174438,786.052979 257.116943,791.604065 257.982452,800.171631 
	C258.737335,807.644714 258.721161,815.256348 260.178711,822.581360 
	C261.773071,830.593994 264.107697,838.707825 270.906281,844.204346 
	C272.450195,845.452576 275.115021,845.962402 277.112274,845.692078 
	C277.945557,845.579224 278.878998,842.550476 278.916107,840.829285 
	C279.100098,832.296143 279.000000,823.756836 279.000000,815.880005 
	C284.212738,815.535034 290.026459,815.449219 295.716553,814.566467 
	C297.164154,814.341919 298.219025,811.586121 299.454315,809.993347 
	C297.853485,808.995544 296.361420,807.601746 294.618042,807.122986 
	C293.175903,806.726868 291.439758,807.556519 289.828949,807.587646 
	C286.232452,807.657227 282.472961,808.134277 279.133301,807.192261 
	C278.147369,806.914185 278.744110,802.289307 277.841156,799.956177 
	C277.336761,798.652954 275.222198,797.188171 273.869049,797.222229 
	C272.555878,797.255249 270.216675,799.083435 270.187836,800.172546 
	C270.067017,804.739685 270.762512,809.321045 270.931274,813.905518 
	C271.090820,818.238831 270.965546,822.582703 270.965546,826.921875 
	C270.486877,826.977234 270.008240,827.032593 269.529572,827.087952 
	C268.687042,824.142090 267.844513,821.196167 267.000092,817.361755 
M331.015961,794.962952 
	C333.010681,796.144470 335.001617,798.191467 337.001465,798.200195 
	C338.313599,798.205994 339.638702,795.266418 340.958008,793.645874 
	C338.582611,792.097900 336.366455,789.684570 333.793365,789.211060 
	C330.214508,788.552490 331.191437,792.007812 331.015961,794.962952 
z"/>
<path fill="#000000" opacity="1.000000" stroke="none" 
	d="
M610.749268,323.632751 
	C607.689270,335.005096 604.058472,345.904510 602.217041,357.098328 
	C600.304932,368.721741 600.124084,380.629974 599.160828,392.731171 
	C567.665039,392.731171 535.583435,392.731171 503.043549,392.731171 
	C508.644318,390.566345 512.613892,386.731995 513.927490,381.400726 
	C515.166199,376.373352 515.705383,370.882416 515.086121,365.773071 
	C514.505615,360.982941 514.221985,357.572571 519.713928,355.969818 
	C523.231873,354.943146 526.492676,352.952393 530.039429,352.129547 
	C533.811401,351.254517 534.787598,348.704987 533.705017,345.996826 
	C533.210815,344.760498 529.672791,343.757080 527.912170,344.205627 
	C523.599121,345.304382 519.387390,347.046844 515.379150,349.025085 
	C511.606323,350.887115 509.765472,349.870331 509.029266,346.001465 
	C507.340790,337.128448 505.302124,328.300568 504.118164,319.359955 
	C503.190765,312.356812 502.726501,305.170654 503.205750,298.144226 
	C503.544983,293.170715 505.548279,288.230896 507.354950,283.483948 
	C507.926483,281.982300 510.321960,280.199554 511.773102,280.290649 
	C513.142029,280.376648 514.986023,282.543182 515.549622,284.166473 
	C518.265564,291.988403 518.620667,299.509033 511.809387,305.864197 
	C510.890656,306.721405 510.509277,309.903473 510.932343,310.142151 
	C512.617737,311.093079 515.393799,312.360291 516.557251,311.617371 
	C523.488281,307.191284 525.972595,299.874756 525.766968,292.302399 
	C525.583069,285.529694 524.569519,278.335846 517.860413,273.955353 
	C510.115967,268.898804 501.722870,273.568329 498.101379,283.028259 
	C493.525208,294.982056 494.707123,307.398529 495.848511,319.856384 
	C496.873993,331.049225 498.951172,341.895325 502.701935,352.478760 
	C503.002716,353.327515 501.627716,355.147095 500.606812,356.017395 
	C497.395325,358.755188 493.607422,360.897522 490.717896,363.916595 
	C483.052612,371.925537 485.067230,388.740204 496.628784,392.630737 
	C410.263397,392.630737 324.993317,392.630737 238.750778,392.630737 
	C239.161148,385.741516 239.069870,378.525024 240.117447,371.477844 
	C242.419128,355.993866 246.944809,341.096497 254.021576,327.083160 
	C260.630981,313.995300 269.607727,302.543793 279.035309,291.390778 
	C286.500488,282.559326 293.655640,273.464691 300.898926,264.447113 
	C308.636230,254.814499 316.771515,245.454559 323.843597,235.352890 
	C327.891022,229.571594 332.647156,228.894730 338.872406,228.902420 
	C448.003082,229.037460 557.134033,229.000000 667.159241,229.000000 
	C663.005737,235.365936 659.186279,241.346313 655.240845,247.242294 
	C645.022339,262.512390 634.183105,277.404572 624.708557,293.120972 
	C619.041077,302.522247 615.475159,313.190460 610.749268,323.632751 
M450.969116,277.346954 
	C440.234497,290.983246 440.161591,306.828552 441.406128,322.990570 
	C441.652954,326.195953 445.038818,329.782196 440.822723,332.618500 
	C435.483429,336.210388 430.080200,339.721222 424.548340,343.003723 
	C423.058624,343.887665 421.002655,343.817291 419.367615,344.152039 
	C418.105743,339.734680 417.346283,335.910980 415.877686,332.382477 
	C415.029663,330.345093 413.231293,327.651550 411.500519,327.354919 
	C410.026672,327.102325 407.436249,329.509155 406.380798,331.339661 
	C401.851196,339.195984 394.783478,343.185608 386.332581,344.919006 
	C380.597961,346.095306 377.875763,342.462738 379.712616,336.741669 
	C383.991486,323.414642 395.522705,317.302673 408.659607,321.134033 
	C410.067566,321.544678 413.031952,320.739685 413.344757,319.833008 
	C413.832123,318.420227 413.145752,315.342224 412.114624,314.889954 
	C408.205902,313.175476 403.847412,310.908997 399.858093,311.243774 
	C386.488892,312.365723 374.558899,321.651611 371.308075,335.607422 
	C369.391418,343.835602 372.136261,350.460876 380.315796,352.598053 
	C389.467651,354.989319 397.746643,350.912506 404.678589,345.445251 
	C409.180115,341.894806 410.321564,343.068390 412.181976,347.415741 
	C414.476440,352.777283 418.087189,354.402710 423.569153,351.916443 
	C430.368195,348.832855 436.884430,345.041748 443.237854,341.097290 
	C446.116669,339.309967 447.254669,339.939026 449.005035,342.403351 
	C451.621674,346.087219 454.257782,350.035889 457.756226,352.749451 
	C462.984344,356.804657 479.188538,355.525726 484.230804,351.071503 
	C485.425323,350.016296 485.868744,347.567139 485.741791,345.825958 
	C485.690674,345.124908 483.120148,344.001251 481.796265,344.126617 
	C479.110992,344.380920 476.451172,345.222900 473.857452,346.059998 
	C468.138794,347.905762 462.860840,348.095856 459.022461,342.480438 
	C457.133209,339.716522 455.440582,336.818237 453.796783,334.200287 
	C456.524750,330.932526 459.240753,328.242767 461.296844,325.118744 
	C470.262146,311.496735 473.974854,296.710388 469.869598,280.609741 
	C469.229401,278.098969 467.278168,275.499207 465.206238,273.858734 
	C459.698944,269.498199 455.265778,273.027863 450.969116,277.346954 
M334.999908,344.292419 
	C334.592529,339.947815 334.185150,335.603210 333.807434,331.575012 
	C339.858978,330.324310 345.183014,329.223969 350.582764,328.108002 
	C351.068970,329.188904 351.791290,330.169525 351.940094,331.230621 
	C352.707825,336.704956 353.046783,342.258545 354.168915,347.652679 
	C354.514587,349.314331 356.679352,351.456787 358.329071,351.785950 
	C360.784882,352.276001 362.369446,350.535522 362.047607,347.556213 
	C361.763336,344.924805 362.182587,342.203735 361.781036,339.600952 
	C359.607971,325.514099 357.276764,311.451660 354.998901,297.380951 
	C354.663086,295.306610 354.944214,292.752502 353.814758,291.288452 
	C352.572388,289.678131 350.029755,289.070953 348.053619,288.026703 
	C347.420074,290.497681 346.083466,293.028748 346.288666,295.428009 
	C346.840485,301.879852 348.020416,308.280060 349.011627,314.691406 
	C349.570099,318.303619 347.148987,319.883606 344.472290,320.724762 
	C340.963867,321.827209 337.262299,322.315155 333.130890,323.174042 
	C332.406708,317.400024 331.553680,311.805725 331.041687,306.180420 
	C330.519806,300.446320 330.225769,294.685059 330.044617,288.929016 
	C329.951904,285.982758 328.932251,284.060455 325.832520,284.042328 
	C322.740326,284.024261 321.744537,285.788361 321.952179,288.822937 
	C322.436218,295.897339 322.527588,302.999512 323.055420,310.069672 
	C323.365540,314.223267 324.207153,318.337158 324.808197,322.469116 
	C317.405670,324.039337 313.073029,327.134644 313.292725,333.299805 
	C313.516174,339.571625 315.146454,346.144684 317.731323,351.877686 
	C320.102356,357.136505 331.048706,356.053680 333.645325,350.781403 
	C334.474365,349.098053 334.568237,347.052612 334.999908,344.292419 
z"/>
<path fill="#000000" opacity="1.000000" stroke="none" 
	d="
M681.000000,164.013565 
	C681.000000,175.153275 681.000000,185.795410 681.000000,196.718048 
	C566.375183,196.718048 451.979431,196.718048 337.978760,196.718048 
	C337.978760,183.111710 337.955627,169.439865 337.985962,155.768143 
	C338.011108,144.425186 343.253479,135.502426 351.406769,128.183945 
	C357.892029,122.362701 365.390900,118.372307 374.351746,118.018044 
	C384.762024,117.606476 395.177490,117.055428 405.591248,117.044350 
	C482.582153,116.962418 559.573669,116.852036 636.563843,117.092171 
	C659.011536,117.162178 675.068848,128.310715 680.695740,151.575119 
	C681.610901,155.358597 680.938599,159.526031 681.000000,164.013565 
z"/>
<path fill="#000000" opacity="1.000000" stroke="none" 
	d="
M735.750366,299.332092 
	C751.382507,322.944122 760.115051,348.501770 762.331421,376.712006 
	C719.105347,376.712006 676.383057,376.712006 632.696777,376.712006 
	C633.461731,371.047180 634.079529,365.327637 635.028320,359.663513 
	C637.700745,343.709076 642.439392,328.281281 650.506653,314.322815 
	C658.228271,300.962494 667.393250,288.435211 675.948608,275.558289 
	C682.277954,266.031738 688.634338,256.523071 695.015076,247.030869 
	C695.800903,245.861816 696.810791,244.843338 698.095947,243.299789 
	C710.795593,262.204132 723.164246,280.615814 735.750366,299.332092 
z"/>
<path fill="#000000" opacity="1.000000" stroke="none" 
	d="
M633.000122,781.835327 
	C633.000000,759.719849 633.000000,738.091370 633.000000,716.232300 
	C676.398438,716.232300 719.468445,716.232300 762.769409,716.232300 
	C762.769409,739.068970 762.769409,761.806519 762.769409,784.877930 
	C761.896484,784.921448 761.111572,784.994751 760.326721,784.994812 
	C719.329163,785.000488 678.331604,785.012939 637.334106,784.956055 
	C635.551392,784.953552 632.547852,786.285278 633.000122,781.835327 
z"/>
<path fill="#000000" opacity="1.000000" stroke="none" 
	d="
M713.000000,614.000000 
	C729.809143,614.000000 746.118286,614.000000 762.713257,614.000000 
	C762.713257,636.954102 762.713257,659.691040 762.713257,682.714600 
	C719.710571,682.714600 676.642395,682.714600 633.286743,682.714600 
	C633.286743,660.045959 633.286743,637.309021 633.286743,614.000000 
	C659.645691,614.000000 686.072876,614.000000 713.000000,614.000000 
z"/>
<path fill="#000000" opacity="1.000000" stroke="none" 
	d="
M668.000000,479.000000 
	C656.190247,479.000000 644.880554,479.000000 633.286072,479.000000 
	C633.286072,456.044586 633.286072,433.307587 633.286072,410.284729 
	C676.290771,410.284729 719.358948,410.284729 762.713867,410.284729 
	C762.713867,432.955383 762.713867,455.692352 762.713867,479.000000 
	C731.352966,479.000000 699.926453,479.000000 668.000000,479.000000 
z"/>
<path fill="#000000" opacity="1.000000" stroke="none" 
	d="
M754.947693,581.000000 
	C714.152161,581.000000 673.848450,581.000000 633.272583,581.000000 
	C633.272583,558.016479 633.272583,535.279053 633.272583,512.270264 
	C676.321289,512.270264 719.390686,512.270264 762.730347,512.270264 
	C762.730347,534.989380 762.730347,557.726807 762.730347,581.000000 
	C760.314514,581.000000 757.876953,581.000000 754.947693,581.000000 
z"/>
<path fill="#000000" opacity="1.000000" stroke="none" 
	d="
M743.999573,885.000000 
	C706.859192,885.000000 670.218750,885.000000 633.289368,885.000000 
	C633.289368,862.717957 633.289368,840.647522 633.289368,818.287964 
	C676.284241,818.287964 719.352417,818.287964 762.710632,818.287964 
	C762.710632,840.282043 762.710632,862.352478 762.710632,885.000000 
	C756.695251,885.000000 750.597351,885.000000 743.999573,885.000000 
z"/>
<path fill="#000000" opacity="1.000000" stroke="none" 
	d="
M501.393341,365.226288 
	C503.304596,364.334045 504.880859,363.642212 506.469727,362.944855 
	C508.611572,368.858307 508.610260,374.435699 505.637726,379.870392 
	C504.028595,382.812408 502.030090,385.805847 498.300140,384.559723 
	C494.046448,383.138641 493.678284,378.480316 494.572937,375.389893 
	C495.627136,371.748199 498.802612,368.720581 501.393341,365.226288 
z"/>
<path fill="#FFFFFF" opacity="1.000000" stroke="none" 
	d="
M495.999084,627.799072 
	C495.060944,629.468018 494.351257,631.468018 493.144958,631.834900 
	C488.711639,633.183289 484.146698,634.186462 479.570465,634.959717 
	C469.506775,636.660278 463.564362,630.762817 459.093597,622.993774 
	C457.295532,619.869202 456.278198,619.163391 452.918182,621.338257 
	C446.783295,625.309143 440.334961,628.920166 433.671997,631.912231 
	C428.121948,634.404541 424.584259,632.797363 422.225189,627.506409 
	C420.428528,623.476807 419.514282,621.711792 414.746246,625.353699 
	C407.597961,630.813721 399.430450,635.229553 389.652893,632.133850 
	C384.442139,630.484009 381.161438,626.361023 381.017059,621.158020 
	C380.741425,611.224121 385.203339,603.453918 393.179382,598.138977 
	C397.857422,595.021729 403.349060,592.168518 408.776764,591.436646 
	C413.103455,590.853149 417.971741,593.441162 422.397308,595.146362 
	C423.285400,595.488586 424.076202,598.755371 423.448669,599.671814 
	C422.692261,600.776428 420.151031,601.588318 418.767548,601.189758 
	C405.503937,597.369324 393.541870,603.717468 389.459808,617.012878 
	C387.830200,622.320557 390.715759,625.999756 396.201599,624.917297 
	C404.857025,623.209412 412.038513,619.095825 416.606567,611.054138 
	C417.578186,609.343689 419.942413,607.130981 421.382812,607.318481 
	C423.056213,607.536255 425.039429,609.894226 425.786407,611.763550 
	C427.316681,615.593262 428.111237,619.716919 429.459198,624.633057 
	C432.302734,623.637146 435.144714,623.073120 437.530762,621.710693 
	C441.716675,619.320679 445.525269,616.276611 449.672913,613.811096 
	C454.308990,611.055237 452.314026,607.023071 451.802216,603.486572 
	C449.373016,586.702759 450.779846,570.659119 461.216492,556.612732 
	C463.676910,553.301392 467.665039,550.926575 472.404144,552.173706 
	C476.927795,553.364014 480.413361,558.653503 481.024353,564.352173 
	C482.689056,579.878418 479.604034,594.139587 470.009827,606.705322 
	C468.129364,609.168152 466.043396,611.474121 463.952423,613.971680 
	C465.156616,616.310852 466.127563,618.921143 467.694977,621.103088 
	C472.026093,627.132202 476.493225,628.325867 483.932129,626.055359 
	C486.692688,625.212708 489.535370,624.272339 492.363495,624.192993 
	C493.544861,624.159851 494.785797,626.253784 495.999084,627.799072 
M469.974304,591.183472 
	C472.990295,580.801697 475.039948,570.421021 470.790344,559.516846 
	C459.380493,566.649658 455.975037,596.094543 461.667297,604.900879 
	C464.484192,600.297241 467.052155,596.100403 469.974304,591.183472 
z"/>
<path fill="#FFFFFF" opacity="1.000000" stroke="none" 
	d="
M525.972229,638.004822 
	C522.685852,640.648865 525.177490,643.411682 525.596375,645.933105 
	C527.226990,655.747314 524.795410,665.069885 516.947449,670.517090 
	C509.000641,676.032959 499.423553,671.887512 496.953674,662.437805 
	C493.925079,650.850281 499.813049,642.109558 507.936859,638.041626 
	C512.113647,635.950134 513.263367,633.884094 511.647369,628.739075 
	C508.863159,619.874634 507.348450,610.530579 506.135956,601.278442 
	C505.132385,593.620728 505.236420,585.807861 505.027985,578.058899 
	C504.831635,570.759583 507.028046,564.085571 511.009644,558.011902 
	C516.677246,549.366089 528.071289,550.031494 532.706421,559.295898 
	C537.839844,569.556213 536.672363,584.004211 527.970642,590.287231 
	C526.418152,591.408203 522.919373,591.487427 521.279724,590.481812 
	C518.088928,588.524902 520.824829,586.529358 522.468079,585.080383 
	C528.885132,579.422241 528.242493,568.888062 524.729553,562.443787 
	C523.150574,559.547241 520.373779,558.676941 518.647766,562.023743 
	C516.335876,566.506897 513.590515,571.319031 513.227295,576.154785 
	C511.945526,593.221985 514.267090,610.026123 519.102234,626.476440 
	C520.207764,630.237610 522.060913,630.588135 525.366882,629.019714 
	C529.110413,627.243713 533.002502,625.567444 537.013611,624.656250 
	C539.129333,624.175659 543.140137,624.774170 543.666565,626.007568 
	C544.932068,628.972412 543.437500,631.224182 539.597107,632.271301 
	C535.010498,633.521851 530.762268,636.013000 525.972229,638.004822 
M508.574158,647.044556 
	C507.127319,649.829102 504.785980,652.516296 504.469604,655.423889 
	C504.108398,658.743286 504.069763,663.296631 508.388245,664.612488 
	C512.075012,665.735840 514.094604,662.741394 515.694946,659.774963 
	C518.630737,654.333008 518.632263,648.793579 516.257080,642.685059 
	C513.905945,644.140564 511.621948,645.554443 508.574158,647.044556 
z"/>
<path fill="#FFFFFF" opacity="1.000000" stroke="none" 
	d="
M425.652649,532.159424 
	C422.852661,531.623779 420.344910,531.151489 417.827179,531.090088 
	C412.206696,530.952942 406.201996,532.278198 401.043121,530.722290 
	C392.458069,528.132935 391.945801,520.565491 397.446472,513.121460 
	C399.199585,510.748993 401.676666,508.911438 403.983734,506.672607 
	C399.544678,499.510437 396.930328,491.910370 398.059052,483.576599 
	C399.197998,475.167633 401.249786,466.971161 409.376434,462.291168 
	C414.013062,459.621002 419.425201,461.202545 421.948822,465.848480 
	C427.223724,475.559631 429.377258,496.546967 417.869537,505.655212 
	C415.897552,507.216064 415.127594,508.778778 417.347717,510.958801 
	C418.819031,512.403564 419.873535,514.300537 420.988190,516.074524 
	C422.754700,518.885986 424.246338,518.785645 426.030243,516.013550 
	C429.258270,510.997345 432.508087,505.978851 436.092499,501.220123 
	C436.960297,500.067932 439.862671,498.981537 440.604645,499.527985 
	C441.873199,500.462250 443.227844,503.217438 442.698029,504.318085 
	C440.489655,508.905518 437.718658,513.244995 434.898254,517.506165 
	C433.283966,519.945007 431.178406,522.058716 429.042206,524.620850 
	C432.531525,527.360168 436.200684,529.934204 439.447052,532.961670 
	C440.529114,533.970703 440.528259,536.141052 441.022461,537.780518 
	C439.163849,538.202942 436.861603,539.526184 435.533203,538.872009 
	C432.105896,537.184143 429.109100,534.622192 425.652649,532.159424 
M407.942841,477.513397 
	C403.846771,485.967865 406.098389,493.618073 410.695374,501.110992 
	C419.104889,494.604858 420.945282,476.677490 413.476166,468.260345 
	C411.559082,471.212616 409.777893,473.955627 407.942841,477.513397 
M413.029266,519.323914 
	C408.205261,512.332092 407.671631,512.330688 403.214569,519.269653 
	C403.039368,519.542358 402.511993,519.814392 402.556793,519.966675 
	C402.878143,521.058655 403.031921,522.788147 403.744049,523.079224 
	C407.709991,524.699951 411.737976,524.433655 416.363525,522.918518 
	C415.035919,521.572937 414.235443,520.761597 413.029266,519.323914 
z"/>
<path fill="#FFFFFF" opacity="1.000000" stroke="none" 
	d="
M332.000000,573.995728 
	C332.000031,571.849243 332.175659,570.160095 331.961456,568.521851 
	C331.580261,565.606812 333.128235,563.774597 335.596039,564.215149 
	C337.250000,564.510498 339.555023,566.658020 339.813080,568.259766 
	C340.646027,573.429199 340.575104,578.737427 341.023346,583.977539 
	C341.562439,590.279541 342.276733,596.566589 342.980072,603.499817 
	C347.575806,602.236206 351.702057,601.509094 355.437531,599.883911 
	C357.042786,599.185547 358.921112,596.548523 358.808960,594.920837 
	C358.363831,588.460876 356.947601,582.071838 356.391693,575.613403 
	C356.179443,573.147522 356.519501,569.236389 358.015442,568.344360 
	C360.340942,566.957703 363.409821,568.063538 364.029785,571.930542 
	C366.617645,588.072327 369.353699,604.190369 371.941315,620.332214 
	C372.253937,622.282410 371.889526,624.331360 372.024353,626.322021 
	C372.229889,629.356140 372.098816,632.132446 368.028015,631.967041 
	C364.512085,631.824158 364.164703,629.374451 363.919037,626.436279 
	C363.473267,621.104797 362.585022,615.806885 361.759491,610.513977 
	C361.621826,609.631470 360.867249,608.845276 360.449310,608.105713 
	C355.017151,609.246155 349.687958,610.364929 343.665009,611.629395 
	C344.085083,614.657471 344.758209,617.836914 344.924377,621.042664 
	C345.315521,628.588196 343.462036,636.665161 333.052612,634.906860 
	C331.125336,634.581360 328.231750,633.431030 327.783325,632.024109 
	C325.797760,625.794556 323.492157,619.359741 323.326385,612.946899 
	C323.171204,606.943665 327.783051,603.816772 334.482422,602.622498 
	C333.653839,593.227722 332.826935,583.851807 332.000000,573.995728 
M336.000031,616.642822 
	C335.627533,614.699768 335.255066,612.756653 334.715515,609.942200 
	C330.468536,614.866028 331.159302,623.115479 336.000000,627.830444 
	C336.000000,623.847107 336.000000,620.691223 336.000031,616.642822 
z"/>
<path fill="#FFFFFF" opacity="1.000000" stroke="none" 
	d="
M571.113281,812.601196 
	C582.067566,819.622620 585.127625,828.503906 579.851929,837.005554 
	C576.054138,843.125732 569.068054,844.815186 562.307434,845.935059 
	C559.874451,846.338135 557.313354,845.898132 554.820251,846.027283 
	C552.084106,846.169067 550.345581,845.047119 551.148743,842.331970 
	C551.547363,840.984558 553.353760,839.422668 554.772095,839.118774 
	C560.391541,837.914429 566.341858,838.312195 571.289490,834.381226 
	C575.133545,831.327148 575.977600,828.976196 573.606873,825.089294 
	C568.430359,816.601746 560.040161,815.884460 552.606384,822.788025 
	C545.902100,829.014038 539.074219,835.225647 531.617920,840.473267 
	C527.887146,843.098938 522.716919,843.995605 518.047607,844.896057 
	C511.322998,846.192871 508.749207,842.718018 507.043579,836.632568 
	C506.152435,833.453003 505.593750,830.180237 504.514587,825.261658 
	C501.020782,829.180969 498.547150,832.011719 496.010315,834.784668 
	C493.808685,837.191162 491.936249,840.259766 489.214905,841.758728 
	C482.416138,845.503479 476.340271,841.440186 474.967010,832.965027 
	C474.152405,827.937744 473.000122,822.965088 471.999664,817.967896 
	C471.482605,817.834961 470.965515,817.702026 470.448456,817.569092 
	C468.634491,821.164917 466.756775,824.730347 465.021942,828.364014 
	C462.619110,833.396851 460.989685,838.956360 457.805328,843.416687 
	C454.230164,848.424316 445.890167,846.636841 444.132385,840.677917 
	C442.549927,835.313293 441.972198,829.648499 441.014557,824.105225 
	C440.602966,821.722534 440.644714,819.225891 439.969513,816.931396 
	C438.201599,810.923279 435.176178,810.117554 431.527893,815.246765 
	C428.917236,818.917236 427.245117,823.504211 426.120422,827.927917 
	C424.129517,835.758484 419.640106,840.903015 411.935852,842.962524 
	C406.985168,844.285889 401.909607,845.290588 396.826202,845.934509 
	C389.028015,846.922180 384.459229,842.038208 380.665527,836.167603 
	C379.553864,834.447327 378.635345,832.602295 377.838959,831.188477 
	C370.332642,835.412720 363.348755,839.645203 356.066803,843.280640 
	C353.441071,844.591553 350.103607,844.493530 347.083649,844.994690 
	C341.366760,845.943298 337.923798,840.929382 336.958862,835.452759 
	C336.331146,831.889954 335.306122,828.397217 334.083221,823.309204 
	C330.062653,826.959351 327.318085,829.660461 324.353485,832.093384 
	C319.937805,835.717224 315.567474,839.478699 310.728302,842.449341 
	C309.430450,843.246094 306.502167,841.386902 304.322327,840.746948 
	C305.374115,838.867065 306.028778,836.536438 307.553375,835.193237 
	C311.836090,831.419861 316.496735,828.077820 320.968689,824.516052 
	C323.136902,822.789124 325.071747,820.734192 327.363464,819.203918 
	C334.306671,814.567383 340.936676,817.167969 342.960571,825.246460 
	C343.587524,827.748840 344.058044,830.309509 344.351593,832.872009 
	C344.862976,837.336121 348.345642,838.197571 351.097076,836.773560 
	C358.480530,832.952209 365.633057,828.575623 372.373962,823.720703 
	C373.613800,822.827759 372.614349,818.644165 372.436462,815.993652 
	C371.330566,799.515991 370.783661,783.144287 383.515503,770.069214 
	C388.745758,764.697937 396.478241,766.690247 399.010956,773.802124 
	C402.934204,784.818665 401.405914,795.781616 397.159210,806.078918 
	C394.198639,813.257629 389.229614,819.608093 384.343933,827.671692 
	C386.650970,830.263733 389.383453,835.547791 393.683746,837.701660 
	C402.469818,842.102173 416.763000,833.785706 419.036316,824.252625 
	C420.779358,816.943298 422.897217,809.529358 430.606323,806.229370 
	C437.380493,803.329529 445.078735,803.821899 446.968628,813.159485 
	C448.025513,818.381592 448.270477,823.763550 449.029480,829.052246 
	C449.468445,832.110901 450.201874,835.127258 450.802826,838.162598 
	C451.371155,838.200989 451.939514,838.239380 452.507874,838.277771 
	C454.333771,833.800537 456.149628,829.319153 457.988251,824.847168 
	C460.183777,819.506958 461.925781,813.843933 467.736877,811.052124 
	C472.573944,808.728088 477.383667,810.577881 478.946198,815.789795 
	C480.552704,821.148376 481.647400,826.659363 483.019440,832.090149 
	C483.277740,833.112488 483.786835,834.071472 484.638672,836.211609 
	C488.158264,832.072998 491.223450,828.769897 493.940094,825.201477 
	C497.732544,820.219971 502.600311,818.256470 507.490509,819.986877 
	C512.039673,821.596680 512.874451,825.694458 513.941223,829.548279 
	C514.578491,831.850403 514.709412,834.292664 515.130859,837.089294 
	C523.733337,836.948730 530.415771,832.930237 536.544189,827.853577 
	C539.610657,825.313293 542.443909,822.421448 545.036011,819.391968 
	C552.091431,811.146362 560.252502,807.421143 571.113281,812.601196 
M387.041809,809.530334 
	C394.100861,796.971741 395.460083,779.843079 389.778961,775.037476 
	C381.354156,782.430664 378.041046,796.822815 380.615662,817.652710 
	C383.266602,814.584534 385.119019,812.440552 387.041809,809.530334 
z"/>
<path fill="#FFFFFF" opacity="1.000000" stroke="none" 
	d="
M267.001038,817.806030 
	C267.844513,821.196167 268.687042,824.142090 269.529572,827.087952 
	C270.008240,827.032593 270.486877,826.977234 270.965546,826.921875 
	C270.965546,822.582703 271.090820,818.238831 270.931274,813.905518 
	C270.762512,809.321045 270.067017,804.739685 270.187836,800.172546 
	C270.216675,799.083435 272.555878,797.255249 273.869049,797.222229 
	C275.222198,797.188171 277.336761,798.652954 277.841156,799.956177 
	C278.744110,802.289307 278.147369,806.914185 279.133301,807.192261 
	C282.472961,808.134277 286.232452,807.657227 289.828949,807.587646 
	C291.439758,807.556519 293.175903,806.726868 294.618042,807.122986 
	C296.361420,807.601746 297.853485,808.995544 299.454315,809.993347 
	C298.219025,811.586121 297.164154,814.341919 295.716553,814.566467 
	C290.026459,815.449219 284.212738,815.535034 279.000000,815.880005 
	C279.000000,823.756836 279.100098,832.296143 278.916107,840.829285 
	C278.878998,842.550476 277.945557,845.579224 277.112274,845.692078 
	C275.115021,845.962402 272.450195,845.452576 270.906281,844.204346 
	C264.107697,838.707825 261.773071,830.593994 260.178711,822.581360 
	C258.721161,815.256348 258.737335,807.644714 257.982452,800.171631 
	C257.116943,791.604065 261.174438,786.052979 268.787262,783.076660 
	C280.087616,778.658691 291.806671,777.687927 303.728394,780.064087 
	C305.079468,780.333374 306.577393,781.113098 307.456085,782.131592 
	C308.234070,783.033325 308.789368,784.785706 308.434509,785.814880 
	C308.101654,786.780090 306.528534,787.585693 305.349670,787.908997 
	C304.350739,788.182922 303.125946,787.714539 302.017151,787.493958 
	C291.977997,785.496521 282.058014,786.517395 272.392700,789.346741 
	C266.580170,791.048279 263.969147,796.751892 264.997925,802.904602 
	C265.799957,807.701172 266.342316,812.541077 267.001038,817.806030 
z"/>
<path fill="#FFFFFF" opacity="1.000000" stroke="none" 
	d="
M331.008484,794.548462 
	C331.191437,792.007812 330.214508,788.552490 333.793365,789.211060 
	C336.366455,789.684570 338.582611,792.097900 340.958008,793.645874 
	C339.638702,795.266418 338.313599,798.205994 337.001465,798.200195 
	C335.001617,798.191467 333.010681,796.144470 331.008484,794.548462 
z"/>
<path fill="#FFFFFF" opacity="1.000000" stroke="none" 
	d="
M451.003326,276.970398 
	C455.265778,273.027863 459.698944,269.498199 465.206238,273.858734 
	C467.278168,275.499207 469.229401,278.098969 469.869598,280.609741 
	C473.974854,296.710388 470.262146,311.496735 461.296844,325.118744 
	C459.240753,328.242767 456.524750,330.932526 453.796783,334.200287 
	C455.440582,336.818237 457.133209,339.716522 459.022461,342.480438 
	C462.860840,348.095856 468.138794,347.905762 473.857452,346.059998 
	C476.451172,345.222900 479.110992,344.380920 481.796265,344.126617 
	C483.120148,344.001251 485.690674,345.124908 485.741791,345.825958 
	C485.868744,347.567139 485.425323,350.016296 484.230804,351.071503 
	C479.188538,355.525726 462.984344,356.804657 457.756226,352.749451 
	C454.257782,350.035889 451.621674,346.087219 449.005035,342.403351 
	C447.254669,339.939026 446.116669,339.309967 443.237854,341.097290 
	C436.884430,345.041748 430.368195,348.832855 423.569153,351.916443 
	C418.087189,354.402710 414.476440,352.777283 412.181976,347.415741 
	C410.321564,343.068390 409.180115,341.894806 404.678589,345.445251 
	C397.746643,350.912506 389.467651,354.989319 380.315796,352.598053 
	C372.136261,350.460876 369.391418,343.835602 371.308075,335.607422 
	C374.558899,321.651611 386.488892,312.365723 399.858093,311.243774 
	C403.847412,310.908997 408.205902,313.175476 412.114624,314.889954 
	C413.145752,315.342224 413.832123,318.420227 413.344757,319.833008 
	C413.031952,320.739685 410.067566,321.544678 408.659607,321.134033 
	C395.522705,317.302673 383.991486,323.414642 379.712616,336.741669 
	C377.875763,342.462738 380.597961,346.095306 386.332581,344.919006 
	C394.783478,343.185608 401.851196,339.195984 406.380798,331.339661 
	C407.436249,329.509155 410.026672,327.102325 411.500519,327.354919 
	C413.231293,327.651550 415.029663,330.345093 415.877686,332.382477 
	C417.346283,335.910980 418.105743,339.734680 419.367615,344.152039 
	C421.002655,343.817291 423.058624,343.887665 424.548340,343.003723 
	C430.080200,339.721222 435.483429,336.210388 440.822723,332.618500 
	C445.038818,329.782196 441.652954,326.195953 441.406128,322.990570 
	C440.161591,306.828552 440.234497,290.983246 451.003326,276.970398 
M462.999969,286.895813 
	C462.261780,284.494629 461.523590,282.093414 460.698914,279.410950 
	C449.114868,287.285461 445.979950,317.325928 451.441223,324.274811 
	C452.677063,322.687866 453.879822,321.194275 455.028473,319.660126 
	C462.138916,310.163422 463.518707,299.226898 462.999969,286.895813 
z"/>
<path fill="#FFFFFF" opacity="1.000000" stroke="none" 
	d="
M334.999207,344.732666 
	C334.568237,347.052612 334.474365,349.098053 333.645325,350.781403 
	C331.048706,356.053680 320.102356,357.136505 317.731323,351.877686 
	C315.146454,346.144684 313.516174,339.571625 313.292725,333.299805 
	C313.073029,327.134644 317.405670,324.039337 324.808960,322.468994 
	C324.207153,318.337158 323.365540,314.223267 323.055420,310.069672 
	C322.527588,302.999512 322.436218,295.897339 321.952179,288.822937 
	C321.744537,285.788361 322.740326,284.024261 325.832520,284.042328 
	C328.932251,284.060455 329.951904,285.982758 330.044617,288.929016 
	C330.225769,294.685059 330.519806,300.446320 331.041687,306.180420 
	C331.553680,311.805725 332.406708,317.400024 333.130890,323.174042 
	C337.262299,322.315155 340.963867,321.827209 344.472290,320.724762 
	C347.148987,319.883606 349.570099,318.303619 349.011627,314.691406 
	C348.020416,308.280060 346.840485,301.879852 346.288666,295.428009 
	C346.083466,293.028748 347.420074,290.497681 348.053619,288.026703 
	C350.029755,289.070953 352.572388,289.678131 353.814758,291.288452 
	C354.944214,292.752502 354.663086,295.306610 354.998901,297.380951 
	C357.276764,311.451660 359.607971,325.514099 361.781036,339.600952 
	C362.182587,342.203735 361.763336,344.924805 362.047607,347.556213 
	C362.369446,350.535522 360.784882,352.276001 358.329071,351.785950 
	C356.679352,351.456787 354.514587,349.314331 354.168915,347.652679 
	C353.046783,342.258545 352.707825,336.704956 351.940094,331.230621 
	C351.791290,330.169525 351.068970,329.188904 350.582764,328.108002 
	C345.183014,329.223969 339.858978,330.324310 333.807434,331.575012 
	C334.185150,335.603210 334.592529,339.947815 334.999207,344.732666 
M321.141571,335.650665 
	C322.081360,339.536469 323.021149,343.422302 323.960938,347.308105 
	C327.060425,342.721130 326.110046,333.073181 323.476166,330.745148 
	C322.633026,332.159180 321.834595,333.498291 321.141571,335.650665 
z"/>
<path fill="#000000" opacity="1.000000" stroke="none" 
	d="
M469.797241,591.543518 
	C467.052155,596.100403 464.484192,600.297241 461.667297,604.900879 
	C455.975037,596.094543 459.380493,566.649658 470.790344,559.516846 
	C475.039948,570.421021 472.990295,580.801697 469.797241,591.543518 
z"/>
<path fill="#000000" opacity="1.000000" stroke="none" 
	d="
M508.956055,647.006470 
	C511.621948,645.554443 513.905945,644.140564 516.257080,642.685059 
	C518.632263,648.793579 518.630737,654.333008 515.694946,659.774963 
	C514.094604,662.741394 512.075012,665.735840 508.388245,664.612488 
	C504.069763,663.296631 504.108398,658.743286 504.469604,655.423889 
	C504.785980,652.516296 507.127319,649.829102 508.956055,647.006470 
z"/>
<path fill="#000000" opacity="1.000000" stroke="none" 
	d="
M407.969757,477.106018 
	C409.777893,473.955627 411.559082,471.212616 413.476166,468.260345 
	C420.945282,476.677490 419.104889,494.604858 410.695374,501.110992 
	C406.098389,493.618073 403.846771,485.967865 407.969757,477.106018 
z"/>
<path fill="#000000" opacity="1.000000" stroke="none" 
	d="
M413.232117,519.637085 
	C414.235443,520.761597 415.035919,521.572937 416.363525,522.918518 
	C411.737976,524.433655 407.709991,524.699951 403.744049,523.079224 
	C403.031921,522.788147 402.878143,521.058655 402.556793,519.966675 
	C402.511993,519.814392 403.039368,519.542358 403.214569,519.269653 
	C407.671631,512.330688 408.205261,512.332092 413.232117,519.637085 
z"/>
<path fill="#000000" opacity="1.000000" stroke="none" 
	d="
M336.000000,617.089050 
	C336.000000,620.691223 336.000000,623.847107 336.000000,627.830444 
	C331.159302,623.115479 330.468536,614.866028 334.715515,609.942200 
	C335.255066,612.756653 335.627533,614.699768 336.000000,617.089050 
z"/>
<path fill="#000000" opacity="1.000000" stroke="none" 
	d="
M387.006622,809.913452 
	C385.119019,812.440552 383.266602,814.584534 380.615662,817.652710 
	C378.041046,796.822815 381.354156,782.430664 389.778961,775.037476 
	C395.460083,779.843079 394.100861,796.971741 387.006622,809.913452 
z"/>
<path fill="#000000" opacity="1.000000" stroke="none" 
	d="
M463.000000,287.356628 
	C463.518707,299.226898 462.138916,310.163422 455.028473,319.660126 
	C453.879822,321.194275 452.677063,322.687866 451.441223,324.274811 
	C445.979950,317.325928 449.114868,287.285461 460.698914,279.410950 
	C461.523590,282.093414 462.261780,284.494629 463.000000,287.356628 
z"/>
<path fill="#000000" opacity="1.000000" stroke="none" 
	d="
M321.088867,335.244019 
	C321.834595,333.498291 322.633026,332.159180 323.476166,330.745148 
	C326.110046,333.073181 327.060425,342.721130 323.960938,347.308105 
	C323.021149,343.422302 322.081360,339.536469 321.088867,335.244019 
z"/>
</svg>